<?xml version="1.0" encoding="UTF-8"?>
<svg version="1.1" xmlns="http://www.w3.org/2000/svg" width="1024" height="1024">
<path d="M0 0 C337.92 0 675.84 0 1024 0 C1024 337.92 1024 675.84 1024 1024 C686.08 1024 348.16 1024 0 1024 C0 686.08 0 348.16 0 0 Z " fill="#F2FAFE" transform="translate(0,0)"/>
<path d="M0 0 C6.40395511 4.88561776 8.7756126 10.35971284 11 18 C12.06476563 18.13535156 13.12953125 18.27070313 14.2265625 18.41015625 C28.0897844 20.3848827 40.76217735 24.50006593 50.1953125 35.578125 C55.56276414 43.00998111 61.1873931 50.91319454 60.89453125 60.42578125 C60.80466661 64.68365334 60.92113044 67.87543283 62 72 C64.74951073 74.52741778 67.41269983 75.83425301 70.7890625 77.41015625 C81.20206196 82.56598445 87.40401128 93.2969898 91.375 103.8125 C94.16719179 112.96014089 93.63090359 121.00617176 91.0625 130.125 C90.11277425 134.09538126 89.64443342 136.14185373 91.21875 139.94140625 C92.45077585 141.77639391 93.73731308 143.5758947 95.07421875 145.3359375 C102.17902006 155.16448616 103.29999939 168.37373288 101.5390625 180.05859375 C99.39747138 189.74614416 95.7663311 197.7819333 88.1875 204.3125 C84.22421445 208.01774191 83.40347426 210.4089143 83.125 215.8125 C83.11082031 217.01132812 83.09664062 218.21015625 83.08203125 219.4453125 C82.79763777 231.76903002 77.32841798 243.2253436 68.96484375 252.15625 C57.80598908 262.62738201 46.30770093 265.61970536 31.39453125 265.23828125 C28 265 28 265 27 264 C26.32399036 256.88258424 25.73552234 249.91806733 30.1796875 243.98828125 C32.98921667 240.91950368 35.91908387 237.97835105 38.89941406 235.07666016 C44.81334237 229.30947446 50.56090984 223.43962033 51.15141296 214.77940369 C51.17782504 212.1347411 51.14517965 209.49591771 51.09765625 206.8515625 C51.09359234 204.85677402 51.09170679 202.86198012 51.09179688 200.8671875 C51.08369624 197.74377819 51.06246034 194.62289338 51.00366211 191.5 C50.70636781 173.97761243 50.70636781 173.97761243 53.97583008 168.97949219 C56.3984375 166.8984375 56.3984375 166.8984375 58.81396484 165.44287109 C62.81051057 162.80499023 63.9077466 158.48398763 65 154 C66.34618562 147.16551918 63.72523927 141.68074544 60 136 C56.17917951 131.60554426 51.68332209 129.38410808 45.90234375 128.78125 C39.13451631 128.50264304 33.98266941 130.16972559 28.25 133.6875 C23.31379624 138.76082053 21.73797596 143.41816382 21.5 150.5 C21.71576994 156.16232642 22.33994185 160.56444088 26 165 C26.7228418 165.37777588 27.44568359 165.75555176 28.19042969 166.14477539 C31.30826367 167.77575374 32.93332318 169.11847958 35 172 C36.46284164 177.89180324 36.08126733 184.12054617 35.89868164 190.14282227 C35.81262156 193.0583816 35.79617708 195.96805143 35.79101562 198.88476562 C35.76709818 200.74745265 35.73923655 202.61009408 35.70703125 204.47265625 C35.6994429 205.33842789 35.69185455 206.20419952 35.68403625 207.09620667 C35.43448096 214.19579036 32.93202671 218.47335954 27.72265625 223.33203125 C27.12864014 223.89873535 26.53462402 224.46543945 25.92260742 225.04931641 C25.00185425 225.92209229 25.00185425 225.92209229 24.0625 226.8125 C16.29116515 234.37126335 10.98068961 241.15862329 10.79467773 252.31933594 C10.77473251 253.38013367 10.75478729 254.4409314 10.73423767 255.53387451 C10.70916893 257.24187225 10.70916893 257.24187225 10.68359375 258.984375 C10.6524221 260.74047089 10.6524221 260.74047089 10.62062073 262.53204346 C10.55524372 266.27130269 10.49629509 270.01063205 10.4375 273.75 C10.39430353 276.2851635 10.35068888 278.82031991 10.30664062 281.35546875 C10.19957441 287.5702384 10.0977859 293.78507778 10 300 C10.62704834 300.30019043 11.25409668 300.60038086 11.90014648 300.90966797 C17.23838668 303.68150621 20.72189261 309.2288908 22.52734375 314.83984375 C24.27096355 322.80861854 23.07997069 329.94649134 19 337 C14.28057493 343.30706576 8.69573659 347.22320656 1 349 C-7.86465446 350.11242723 -14.63520739 348.69361714 -21.96875 343.64453125 C-27.16259317 339.54007467 -30.72590604 334.61086491 -32 328 C-32.66141806 319.09629537 -32.17082224 311.75207569 -26.5 304.625 C-24 302 -24 302 -21 300 C-20.55085117 298.12034407 -20.55085117 298.12034407 -20.62818909 295.92755127 C-20.62143158 295.07522919 -20.61467407 294.2229071 -20.60771179 293.34475708 C-20.61543106 292.40759857 -20.62315033 291.47044006 -20.63110352 290.50488281 C-20.62733704 289.51936432 -20.62357056 288.53384583 -20.61968994 287.51846313 C-20.61324172 285.37296755 -20.61360218 283.22744343 -20.61987495 281.08194733 C-20.62895244 277.68584517 -20.61879842 274.29029905 -20.60325623 270.89422607 C-20.56306902 261.23678506 -20.56195233 251.57938567 -20.56420898 241.921875 C-20.56426009 236.01910708 -20.54508776 230.11663734 -20.51487541 224.21395111 C-20.50403901 220.86910338 -20.51618998 217.52482234 -20.52870178 214.17999268 C-20.51979645 212.12422118 -20.50972175 210.06845431 -20.49829102 208.01269531 C-20.50803452 207.08363373 -20.51777802 206.15457214 -20.52781677 205.19735718 C-20.45273215 198.42687203 -18.66260895 194.82614731 -13.96484375 189.83984375 C-13.29582031 189.21207031 -12.62679687 188.58429688 -11.9375 187.9375 C-6.9517984 183.07227074 -4.13640016 178.9986921 -3.89561462 171.93984985 C-3.90419998 170.74105194 -3.91278534 169.54225403 -3.92163086 168.30712891 C-3.92774404 166.93161088 -3.93367109 165.55609203 -3.93943787 164.18057251 C-3.94411009 163.45502796 -3.94878231 162.72948341 -3.95359612 161.98195267 C-3.97282592 158.12596718 -3.95756001 154.27006249 -3.94726562 150.4140625 C-3.93501754 145.51333554 -3.93337431 140.61348241 -3.97583008 135.71289062 C-4.00928485 131.7460409 -4.00375991 127.7809131 -3.97226143 123.81406784 C-3.96734513 122.30623658 -3.97658168 120.79828799 -4.00047112 119.29063797 C-4.17715433 107.4458688 -4.17715433 107.4458688 -1.24026489 103.83856201 C0.90795898 102.26318359 0.90795898 102.26318359 3.04588318 101.13241577 C6.35409524 99.21529829 7.37601709 96.37788445 9 93 C9.33 92.34 9.66 91.68 10 91 C10.77478783 82.84982801 9.3446477 76.817844 4.3125 70.25 C-0.24286601 65.26931726 -5.32323422 63.89064962 -11.9375 63.5625 C-18.05942339 63.78819303 -23.20023934 65.5239804 -27.82421875 69.61328125 C-32.47344506 74.69028141 -34.53663974 79.78670929 -34.30859375 86.7890625 C-33.29892561 94.02288743 -30.46871843 99.41149412 -24.68359375 103.84375 C-23.13171955 104.90953832 -21.56642573 105.95571618 -20 107 C-19.61231995 109.62309265 -19.61231995 109.62309265 -19.59594727 112.9909668 C-19.57692101 114.87884163 -19.57692101 114.87884163 -19.55751038 116.80485535 C-19.55956272 118.18631147 -19.56255149 119.56776648 -19.56640625 120.94921875 C-19.56184535 122.36448925 -19.55654005 123.77975753 -19.55052185 125.19502258 C-19.54157411 128.16680877 -19.54402938 131.13832654 -19.55395508 134.11010742 C-19.56539989 137.90542927 -19.54531244 141.69981448 -19.51603794 145.49501324 C-19.49761571 148.42143077 -19.49798106 151.34762688 -19.50367546 154.27408791 C-19.5038282 155.67223224 -19.49782334 157.07039205 -19.48538399 158.46848106 C-19.41618525 167.52815835 -19.61483448 173.35789119 -26 180.1171875 C-27.33075396 181.28679547 -28.66408382 182.45347927 -30 183.6171875 C-37.2069261 192.2035643 -36.60404971 202.10042668 -36.609375 212.72265625 C-36.62437496 214.4361679 -36.64110589 216.14966518 -36.65948486 217.86314392 C-36.70296713 222.34618842 -36.72311476 226.82903794 -36.73822021 231.31225586 C-36.75786066 235.89774005 -36.79982264 240.48301579 -36.83984375 245.06835938 C-36.91493837 254.04550831 -36.96535508 263.02261013 -37 272 C-38.83837891 272.59179688 -38.83837891 272.59179688 -41 273 C-43.89040744 271.35831843 -46.46801901 269.4318734 -49.1484375 267.46875 C-52.72197068 265.62813565 -54.19088924 265.85925068 -58 267 C-59.90734197 267.89223 -61.78284109 268.8549616 -63.625 269.875 C-77.2595415 276.84302121 -93.21671811 278.44251425 -108 274 C-116.62994774 271.16687041 -116.62994774 271.16687041 -119.46679688 268.75073242 C-124.83107885 264.22162247 -129.32904582 264.5458631 -136.125 264.9375 C-151.07951243 265.35463792 -163.18458846 262.1256228 -174.6875 252 C-182.98261314 243.17415688 -187.42485315 230.41292818 -187.203125 218.4765625 C-186.9029266 214.81645129 -186.04225745 211.51761888 -185 208 C-185.680625 207.79375 -186.36125 207.5875 -187.0625 207.375 C-196.20881364 203.09374681 -201.38235524 194.86255577 -204.875 185.625 C-207.90974219 174.15839927 -207.76233058 159.49129489 -202 149 C-197.54444444 141.54444444 -197.54444444 141.54444444 -195 139 C-195.06517132 136.99287607 -195.06517132 136.99287607 -195.375 134.6875 C-195.51035156 133.51767578 -195.51035156 133.51767578 -195.6484375 132.32421875 C-195.94027592 130.06366399 -195.94027592 130.06366399 -196.51953125 128.171875 C-199.34635279 115.39372234 -196.32846096 102.18945951 -189.75 91.125 C-184.27678924 83.10773819 -176.95089919 76.52701637 -167.26171875 74.3984375 C-166.14216797 74.20121094 -166.14216797 74.20121094 -165 74 C-165.03480469 73.20078125 -165.06960938 72.4015625 -165.10546875 71.578125 C-165.4835497 56.23884087 -161.47358399 44.25575237 -151.0390625 32.87890625 C-142.71672969 25.21024326 -132.10434609 20.22760176 -120.91015625 18.78515625 C-118.05649519 17.612179 -117.4243978 15.68255288 -116 13 C-108.88133545 1.93546935 -101.69689884 -3.76605384 -89.15234375 -7.55859375 C-79.60007714 -9.51758854 -69.37697078 -8.40517229 -61.11328125 -3.171875 C-59.23083685 -1.89513034 -57.3713385 -0.58351638 -55.54296875 0.76953125 C-53.06124684 2.30182496 -53.06124684 2.30182496 -50.4296875 1.3828125 C-48.12186866 0.06935934 -46.05281612 -1.33572884 -43.9375 -2.9375 C-29.51230087 -12.7870934 -13.46312472 -9.57126346 0 0 Z " fill="#F56D14" transform="translate(564,367)"/>
<path d="M0 0 C4.94863638 2.59876614 9.25169676 5.94923649 13.640625 9.38671875 C15.51349395 10.78541013 17.38856909 12.18115134 19.265625 13.57421875 C25.51923264 18.27847302 31.73215283 23.03549489 37.9453125 27.79296875 C49.963132 36.99419168 61.99548381 46.17479762 74.11669922 55.23950195 C79.10312858 58.97266102 84.04516395 62.76078603 88.9765625 66.56640625 C99.88935377 74.97847847 110.8560601 83.32254839 121.890625 91.57421875 C129.39931186 97.18923025 136.84559494 102.88363264 144.28808594 108.5859375 C159.17170224 119.98012183 159.17170224 119.98012183 174.140625 131.26171875 C175.97395833 132.63671875 177.80729167 134.01171875 179.640625 135.38671875 C180.17623047 135.78552246 180.71183594 136.18432617 181.26367188 136.59521484 C195.73912088 147.39376715 207.45718288 158.5238725 211.16316509 176.99049568 C211.72133245 180.9607994 211.788745 184.85943832 211.78779602 188.85910034 C211.79331105 190.11779959 211.79331105 190.11779959 211.7989375 191.40192711 C211.80992784 194.20659701 211.81381031 197.0112298 211.81762695 199.81591797 C211.8238953 201.83022681 211.83054243 203.8445345 211.83753967 205.85884094 C211.85854483 212.46968791 211.86894131 219.08053501 211.87890625 225.69140625 C211.88295565 227.97248471 211.88707263 230.25356305 211.89125633 232.53464127 C211.91030315 243.25715374 211.92453316 253.97965938 211.9328683 264.70218551 C211.94262788 277.05129706 211.96891621 289.40022876 212.00936919 301.749277 C212.03960983 311.31135385 212.05434485 320.8733794 212.05764931 330.43550313 C212.05999143 336.13804116 212.06884185 341.84038695 212.09411049 347.54287338 C212.11753443 352.91589432 212.12156724 358.2885984 212.11134911 363.66165733 C212.11085704 365.62227246 212.11707895 367.58290395 212.13090515 369.54347038 C212.28835454 393.21489247 206.92301909 414.16445266 190.015625 431.63671875 C175.59737927 445.86217036 158.56025423 449.96360108 138.8046875 449.93359375 C137.81243164 449.92521484 136.82017578 449.91683594 135.79785156 449.90820312 C132.74985569 449.88660702 129.70417803 449.90817806 126.65625 449.93359375 C124.69530736 449.93095272 122.73436615 449.92583241 120.7734375 449.91796875 C119.87432648 449.92606567 118.97521545 449.9341626 118.04885864 449.94250488 C111.51849175 449.84621787 106.02018156 448.51254673 101.11428833 443.97497559 C97.5074232 439.8944916 95.82589534 436.38763841 95.328125 431.01171875 C95.86100263 424.8303382 98.25828863 419.76905512 102.640625 415.38671875 C110.31960347 410.14443257 118.5776833 410.81756142 127.515625 410.82421875 C146.60761817 410.89354173 146.60761817 410.89354173 162.640625 401.38671875 C170.05941201 392.97876014 171.79052022 385.26663742 171.78779602 374.16421509 C171.79331105 372.94605167 171.79331105 372.94605167 171.7989375 371.7032789 C171.8099233 368.99049323 171.81380941 366.27774593 171.81762695 363.56494141 C171.82389526 361.61646911 171.83054239 359.66799801 171.83753967 357.7195282 C171.85853174 351.32995428 171.86893478 344.94038023 171.87890625 338.55078125 C171.88295506 336.34876874 171.88707202 334.14675636 171.89125633 331.94474411 C171.91029417 321.60241064 171.92453041 311.26008426 171.9328683 300.91773665 C171.94264788 288.98510625 171.96899218 277.052661 172.00936919 265.12009585 C172.03952567 255.89104989 172.05433658 246.66205705 172.05764931 237.43296278 C172.05999951 231.9229436 172.06895692 226.41312255 172.09411049 220.90315628 C172.11738913 215.7205766 172.12162519 210.53832558 172.11134911 205.35570717 C172.11085366 203.45623367 172.11717678 201.55674398 172.13090515 199.65732002 C172.14863188 197.0588842 172.14151457 194.46162706 172.12837219 191.8631897 C172.13934144 191.11628644 172.15031068 190.36938318 172.16161233 189.59984648 C172.0877732 183.52962853 170.34910095 178.18938833 166.06071264 173.75186121 C164.39713112 172.2840043 162.67389013 170.95645534 160.890625 169.63671875 C160.2301416 169.12850586 159.5696582 168.62029297 158.88916016 168.09667969 C156.81827356 166.5101567 154.73151038 164.94675759 152.640625 163.38671875 C151.37196875 162.42895087 150.10372942 161.47063045 148.8359375 160.51171875 C146.23852805 158.55330676 143.63318143 156.60600056 141.0234375 154.6640625 C135.94944308 150.88143837 130.92080773 147.03980114 125.890625 143.19921875 C120.48794892 139.07604818 115.08512871 134.95454081 109.640625 130.88671875 C98.80263492 122.785129 88.07469391 114.53622143 77.3203125 106.32421875 C68.72604312 99.76505574 60.1141745 93.23251157 51.453125 86.76171875 C44.28678359 81.4064193 37.20008113 75.9590815 30.15209961 70.44921875 C23.3936597 65.17346347 16.54516798 60.02492472 9.66992188 54.90283203 C7.49407682 53.27723076 5.3245918 51.6434071 3.15625 50.0078125 C2.42164551 49.45432129 1.68704102 48.90083008 0.93017578 48.33056641 C-0.48374566 47.26494233 -1.89686765 46.19825643 -3.30908203 45.13037109 C-7.96838153 41.62432831 -10.73736501 39.77312531 -16.74609375 39.859375 C-22.18751018 40.95741867 -26.15815205 44.9544199 -30.359375 48.38671875 C-31.9378892 49.59914362 -33.51650018 50.81146528 -35.10058594 52.01660156 C-37.3220013 53.70955111 -39.52911938 55.42071235 -41.73730469 57.13085938 C-50.90826228 64.23131179 -60.12937207 71.26552782 -69.35742188 78.29150391 C-74.86296799 82.48353911 -80.36422865 86.68106144 -85.859375 90.88671875 C-92.26878852 95.79210163 -98.6876698 100.68494 -105.109375 105.57421875 C-111.79480166 110.66494 -118.46938837 115.76878864 -125.125 120.8984375 C-129.76402377 124.4713048 -134.41966477 128.02248298 -139.07226562 131.57763672 C-143.25762339 134.77671399 -147.43688682 137.98337618 -151.609375 141.19921875 C-156.40542968 144.89404632 -161.21945813 148.56444924 -166.03979492 152.22753906 C-169.65391567 154.9759734 -173.26324641 157.73064207 -176.87109375 160.48730469 C-178.43719209 161.68277614 -180.00470112 162.87640405 -181.57421875 164.06738281 C-193.01672957 172.04905072 -193.01672957 172.04905072 -200.359375 183.38671875 C-200.45725 186.0012771 -200.49844701 188.5891055 -200.49308777 191.20376587 C-200.4964861 192.41090069 -200.4964861 192.41090069 -200.49995309 193.64242208 C-200.50630058 196.34838047 -200.50546323 199.05428888 -200.50463867 201.76025391 C-200.50762979 203.69680852 -200.51103221 205.63336254 -200.51481628 207.56991577 C-200.52366767 212.83877261 -200.52599494 218.10761321 -200.52663207 223.37647676 C-200.52758082 227.77481171 -200.53125893 232.17314286 -200.53480417 236.57147634 C-200.5429539 246.95211248 -200.54538802 257.33273994 -200.54467773 267.71337891 C-200.54407756 278.41680907 -200.55461625 289.12018874 -200.5704214 299.82360613 C-200.58350749 309.01354256 -200.58886114 318.20346251 -200.58822232 327.39340818 C-200.58796755 332.88164059 -200.5908072 338.36982818 -200.60140038 343.8580513 C-200.6110987 349.0241103 -200.6111486 354.19008183 -200.60388374 359.35614395 C-200.60283989 361.24873482 -200.60518891 363.14133119 -200.6112442 365.03391266 C-200.61899581 367.62530031 -200.61429839 370.21638828 -200.60661316 372.80776978 C-200.61175672 373.54991561 -200.61690029 374.29206144 -200.62219971 375.05669653 C-200.55367083 385.57389157 -197.80681629 393.2583473 -190.796875 401.14453125 C-183.02841774 408.57685334 -173.00899233 409.9833465 -162.6809082 409.86914062 C-161.57049164 409.87305313 -160.46007507 409.87696564 -159.31600952 409.8809967 C-156.92512386 409.88693711 -154.53420172 409.88386479 -152.14333534 409.87257385 C-148.3552504 409.85521718 -144.56792212 409.86287079 -140.77983093 409.87683105 C-132.74377758 409.9020897 -124.70794208 409.89687885 -116.671875 409.88671875 C-107.34477234 409.87493745 -98.01808145 409.87635783 -88.69099998 409.91078186 C-84.96617639 409.91786226 -81.2419431 409.90121902 -77.51716614 409.88366699 C-75.22799361 409.88937526 -72.9388235 409.89619273 -70.6496582 409.90429688 C-69.62036697 409.89298233 -68.59107574 409.88166779 -67.53059387 409.87001038 C-60.28530501 409.93121138 -54.60928452 411.2293114 -49.30078125 416.38671875 C-48.84574219 417.04671875 -48.39070312 417.70671875 -47.921875 418.38671875 C-47.44878906 419.04671875 -46.97570312 419.70671875 -46.48828125 420.38671875 C-44.12575935 424.57222468 -43.96359682 428.63738061 -44.359375 433.38671875 C-46.31921382 439.27743428 -49.30444614 442.87921709 -54.359375 446.38671875 C-57.90700202 448.06225682 -60.70068548 448.63956226 -64.61192322 448.65414429 C-65.65033356 448.66267426 -66.6887439 448.67120422 -67.75862122 448.67999268 C-68.88749252 448.6790863 -70.01636383 448.67817993 -71.17944336 448.67724609 C-72.97560089 448.68732193 -72.97560089 448.68732193 -74.80804443 448.69760132 C-78.08754903 448.71333369 -81.36690152 448.7199561 -84.64643931 448.72123289 C-86.70142806 448.72265778 -88.75639055 448.72693405 -90.81137276 448.73222733 C-97.99869586 448.7507293 -105.1859449 448.75889886 -112.37329102 448.75732422 C-119.04144188 448.75612691 -125.70926692 448.77714752 -132.37733549 448.80881155 C-138.12369503 448.83511237 -143.86994921 448.84568559 -149.61636835 448.8444134 C-153.03852546 448.84390724 -156.46039372 448.84939422 -159.88249016 448.8707695 C-182.05644314 448.98517495 -200.14908955 447.71902968 -217.01171875 431.73828125 C-235.95245531 412.76602932 -240.66521428 392.33435373 -240.64990234 366.36401367 C-240.65589342 364.33439386 -240.66270029 362.30477632 -240.67025757 360.27516174 C-240.68786448 354.78330837 -240.69261067 349.29151739 -240.69388914 343.79963851 C-240.69531416 340.36318237 -240.69959037 336.92674192 -240.70488358 333.49028969 C-240.72336538 321.48659896 -240.73155639 309.48295254 -240.72998047 297.47924805 C-240.72877916 286.31387748 -240.74988424 275.14870025 -240.7814678 263.98337859 C-240.80766922 254.37625004 -240.81834616 244.76918449 -240.81706965 235.1620205 C-240.81656121 229.43338068 -240.82217914 223.70491285 -240.84342575 217.97630882 C-240.86287363 212.58599332 -240.86288785 207.19601277 -240.84839249 201.80568504 C-240.84631151 199.83574938 -240.85096253 197.86579238 -240.8631134 195.8958931 C-240.96243208 178.6687208 -238.71013596 162.96403642 -226.31665039 149.85864258 C-220.45920526 143.94474014 -214.05635673 138.81845322 -207.36621094 133.87988281 C-204.14468709 131.48294366 -200.96167396 129.03586318 -197.77246094 126.59619141 C-190.60149412 121.11198193 -183.40705398 115.66088759 -176.171875 110.26171875 C-170.51362718 106.03794619 -164.923604 101.73351384 -159.359375 97.38671875 C-153.15594888 92.54058063 -146.90712307 87.76565153 -140.59838867 83.05761719 C-135.09788 78.94988923 -129.6305092 74.79990531 -124.171875 70.63671875 C-123.28725586 69.96213623 -122.40263672 69.28755371 -121.49121094 68.5925293 C-117.89212914 65.84704252 -114.29393055 63.10040116 -110.69628906 60.35302734 C-100.39031393 52.48352952 -90.05808775 44.65329221 -79.66992188 36.89257812 C-74.1612607 32.76651699 -68.71530214 28.56785154 -63.296875 24.32421875 C-57.02904079 19.43101322 -50.7273758 14.58653454 -44.359375 9.82421875 C-43.60648193 9.25243896 -42.85358887 8.68065918 -42.07788086 8.09155273 C-29.25091044 -1.42668888 -15.60112055 -6.50046689 0 0 Z " fill="#037DD8" transform="translate(526.359375,255.61328125)"/>
<path d="M0 0 C5.06814973 3.24521841 7.44770506 7.49360654 8.9765625 13.265625 C9.25331309 16.18600952 9.2552566 19.08773996 9.24398804 22.0196228 C9.24851915 22.88890148 9.25305026 23.75818015 9.25771868 24.65380061 C9.27035636 27.56010765 9.26874272 30.46622715 9.26708984 33.37255859 C9.27307544 35.45896139 9.27988106 37.54536197 9.28744507 39.63175964 C9.30510799 45.29499588 9.30980055 50.95817167 9.31107664 56.62143278 C9.31249851 60.16034416 9.31676876 63.69924018 9.32207108 67.23814774 C9.34057154 79.58618394 9.34874157 91.93417696 9.34716797 104.28222656 C9.34596621 115.78956912 9.36707531 127.29672422 9.3986553 138.80401933 C9.42481042 148.68699506 9.4355356 158.56990953 9.43425715 168.4529196 C9.43374734 174.35416163 9.43944132 180.25523702 9.46061325 186.15644455 C9.47998287 191.70673993 9.48012863 197.25670947 9.46557999 202.80701637 C9.4634893 204.84193841 9.46820822 206.87688078 9.4803009 208.91176796 C9.49576233 211.69411398 9.48643931 214.47533765 9.47103882 217.25765991 C9.48132594 218.05903645 9.49161307 218.86041299 9.50221193 219.68607366 C9.42180771 226.27912302 7.36343345 231.30994516 3.22265625 236.4375 C-5.50285045 244.05111708 -14.75797363 246.15486132 -26.15625 245.64453125 C-35.24094109 244.75441505 -41.79706956 241.15636712 -49.02734375 235.75390625 C-52.46296389 233.19231863 -54.06088076 233.24695241 -58.2734375 233.703125 C-71.08513165 234.84125869 -81.30150174 235.64980957 -91.8359375 227.515625 C-98.00442696 221.862369 -99.94057409 214.75195166 -100.3359375 206.640625 C-100.21301425 197.46235545 -96.47362933 188.78732672 -90.0234375 182.265625 C-83.93099757 177.29220465 -77.60153113 174.79165621 -70.2109375 172.328125 C-67.49046391 171.00675212 -66.43583294 169.94174268 -65.0234375 167.265625 C-64.34729994 163.29331685 -64.71845608 161.74342923 -66.8984375 158.328125 C-70.72067595 155.80544762 -72.50642484 155.66281311 -76.9453125 156.3671875 C-89.70575861 160.09168319 -101.21867175 167.40682048 -109.0234375 178.265625 C-112.7578826 177.33201373 -113.93642862 176.38743743 -116.2109375 173.203125 C-120.23770037 165.24781299 -120.83655788 156.9783377 -119.0234375 148.265625 C-115.15762561 140.47560526 -108.06653221 135.22045856 -100.1640625 131.95703125 C-95.4223559 130.42549463 -91.00010229 130.10493893 -86.0234375 130.078125 C-84.8271875 130.06394531 -83.6309375 130.04976562 -82.3984375 130.03515625 C-79.12256901 130.2588556 -76.99266475 130.95582528 -74.0234375 132.265625 C-70.84240736 132.1104528 -69.31985454 131.47391806 -66.7109375 129.640625 C-64.35194571 126.32056248 -64.45421895 124.25015484 -65.0234375 120.265625 C-67.84314705 116.03606067 -72.28053681 114.58429279 -77.0234375 113.265625 C-80.0597322 112.89316752 -83.03076943 112.88834196 -86.0859375 112.953125 C-86.84970703 112.94990234 -87.61347656 112.94667969 -88.40039062 112.94335938 C-93.31071083 112.98956427 -97.35562206 113.76044486 -102.0234375 115.265625 C-104.7734375 115.640625 -104.7734375 115.640625 -107.0234375 115.265625 C-110.31018313 111.97887937 -110.48318059 109.17959114 -110.5234375 104.640625 C-110.33885574 96.92029208 -108.59266177 91.17517065 -103.34375 85.42578125 C-98.92825676 81.41258851 -94.59920869 78.265625 -88.4609375 78.265625 C-82.39993502 80.02882572 -79.59141551 84.6283998 -76.33203125 89.71484375 C-74.71297201 91.63354978 -73.34181922 92.30873846 -71.0234375 93.265625 C-68.85173999 93.47533261 -68.85173999 93.47533261 -66.57421875 93.3203125 C-65.72537109 93.29582031 -64.87652344 93.27132812 -64.00195312 93.24609375 C-62.24378063 93.17653967 -60.48591703 93.09860152 -58.72851562 93.01171875 C-51.15217716 92.81760006 -45.67317211 94.83246859 -39.3984375 99.015625 C-36.10963561 100.74657336 -33.68052207 100.67196773 -30.0234375 100.265625 C-28.00392688 99.32965185 -28.00392688 99.32965185 -27.0234375 97.265625 C-26.07278636 93.59882773 -25.57926952 91.29397043 -27.1015625 87.76953125 C-31.87763236 81.54704999 -42.16386889 77.91834565 -49.75390625 76.49609375 C-52.11801598 76.21896802 -52.11801598 76.21896802 -54.88671875 76.25390625 C-62.63324131 76.1259459 -66.49962666 74.2804116 -71.953125 68.73046875 C-76.40557325 63.42953508 -78.76301336 58.72811969 -78.41015625 51.6953125 C-77.23603465 44.31850809 -74.59145251 37.35976639 -69.0234375 32.265625 C-58.91354325 25.80017227 -58.91354325 25.80017227 -53.0234375 25.265625 C-50.37382193 27.91524057 -50.6393752 29.57139678 -50.2734375 33.265625 C-49.30599203 40.113325 -47.08646406 44.73756483 -43.0234375 50.265625 C-42.5696875 50.91273438 -42.1159375 51.55984375 -41.6484375 52.2265625 C-36.07209509 59.48214438 -26.99891774 64.58675819 -18.0234375 66.265625 C-14.1892705 66.42649914 -11.10173492 66.14174166 -8.0234375 63.640625 C-6.61124502 60.28666787 -6.57324498 57.86716512 -7.0234375 54.265625 C-9.24900489 50.62378745 -11.83695515 49.96449816 -15.7734375 48.953125 C-22.69952404 47.06326363 -27.61447709 42.90750258 -31.3984375 36.828125 C-35.2426607 28.40040491 -36.36733629 20.41760953 -33.125 11.5390625 C-30.16619812 5.43259905 -25.43566287 0.59253327 -19.1875 -2.109375 C-12.41215157 -4.06615433 -6.24166657 -3.13186096 0 0 Z " fill="#F0F8FE" transform="translate(495.0234375,379.734375)"/>
<path d="M0 0 C3.14790366 3.22660125 3.91624923 5.28213628 4.4375 9.75 C3.81011657 19.76912324 -0.22917226 27.65556393 -7 35 C-16.16649362 42.93754732 -27.96176639 45.70605978 -39.94140625 45.29296875 C-42.87083594 44.87606699 -44.7504234 43.89808025 -47 42 C-49.50031654 38.24952518 -49.53603554 36.44143734 -49 32 C-47.0130778 29.36752137 -45.39255595 27.38715339 -42.12426758 26.47851562 C-39.97587829 26.20219546 -37.85049726 26.05029651 -35.6875 25.9375 C-25.69389951 25.19067011 -25.69389951 25.19067011 -17.6796875 19.5 C-15.02943372 15.49681946 -14.66882115 11.78790713 -14.33984375 7.0859375 C-13.82513262 3.92667607 -12.25154286 2.18331429 -10 0 C-6.70137908 -1.64931046 -3.40421646 -1.07643208 0 0 Z " fill="#F56B14" transform="translate(479,547)"/>
<path d="M0 0 C0.33 0 0.66 0 1 0 C1 25.74 1 51.48 1 78 C-0.98 78.495 -0.98 78.495 -3 79 C-5.75 76.5625 -5.75 76.5625 -8 74 C-7.401875 74.33 -6.80375 74.66 -6.1875 75 C-3.94613529 76.20787988 -3.94613529 76.20787988 -1 76 C-0.505 38.38 -0.505 38.38 0 0 Z " fill="#F43E13" transform="translate(526,561)"/>
<path d="M0 0 C2 2 2 2 2.3125 5.5 C2.17147298 11.01012723 1.15845461 17.5894631 -2.60546875 21.79296875 C-3.06566406 22.19128906 -3.52585937 22.58960938 -4 23 C-3.25 15.25 -3.25 15.25 -1 13 C-0.2825051 8.62328112 0.13875073 4.4400235 0 0 Z " fill="#F3521C" transform="translate(481,551)"/>
<path d="M0 0 C0.33 0 0.66 0 1 0 C0.40745672 6.28095872 0.40745672 6.28095872 -1.0625 8.875 C-4.18618587 10.68875309 -7.45213613 11.0267259 -11 11 C-14.5 10.0625 -14.5 10.0625 -17 9 C-14.00519083 8.1276588 -11.36424089 7.89170234 -8.25 7.9375 C-7.45078125 7.94652344 -6.6515625 7.95554687 -5.828125 7.96484375 C-5.22484375 7.97644531 -4.6215625 7.98804688 -4 8 C-3.67 6.68 -3.34 5.36 -3 4 C-2.01 4 -1.02 4 0 4 C0 2.68 0 1.36 0 0 Z " fill="#F24D1C" transform="translate(488,436)"/>
<path d="M0 0 C2 2 2 2 3.875 5.4375 C5.51221355 8.39187032 7.06138121 10.21583859 10 12 C8.35 12 6.7 12 5 12 C5 11.34 5 10.68 5 10 C3.35 9.67 1.7 9.34 0 9 C-0.84454356 5.62182575 -1.10844919 3.32534757 0 0 Z " fill="#F35917" transform="translate(376,547)"/>
<path d="M0 0 C0.66 0.33 1.32 0.66 2 1 C1.525625 1.5775 1.05125 2.155 0.5625 2.75 C-0.9484867 4.92582084 -1.54036151 6.42602448 -2 9 C-2.61875 8.814375 -3.2375 8.62875 -3.875 8.4375 C-6.04160178 7.76313824 -6.04160178 7.76313824 -8 9 C-8.99 9 -9.98 9 -11 9 C-7.37 6.03 -3.74 3.06 0 0 Z " fill="#046BCB" transform="translate(338,375)"/>
<path d="M0 0 C3.875 1.75 3.875 1.75 5 4 C5.46280992 10.24793388 5.46280992 10.24793388 3.5 13.4375 C3.005 13.953125 2.51 14.46875 2 15 C1.34 14.67 0.68 14.34 0 14 C0.66 13.34 1.32 12.68 2 12 C2.46006346 9.79749008 2.46006346 9.79749008 2.625 7.375 C2.69976562 6.55773437 2.77453125 5.74046875 2.8515625 4.8984375 C2.90054687 4.27195312 2.94953125 3.64546875 3 3 C2.01 2.67 1.02 2.34 0 2 C0 1.34 0 0.68 0 0 Z " fill="#F35221" transform="translate(426,496)"/>
<path d="M0 0 C0.33 0 0.66 0 1 0 C0.58411954 6.19518473 -0.60251894 11.26689311 -3 17 C-4.03159626 13.90521121 -3.97482862 12.47368607 -3.5625 9.3125 C-3.46066406 8.50425781 -3.35882812 7.69601562 -3.25390625 6.86328125 C-3.17011719 6.24839844 -3.08632813 5.63351562 -3 5 C-2.34 5 -1.68 5 -1 5 C-0.67 3.35 -0.34 1.7 0 0 Z " fill="#0465C6" transform="translate(735,647)"/>
<path d="M0 0 C0.66 0 1.32 0 2 0 C1.64950425 3.24208567 1.43778819 4.61527704 -1.0625 6.8125 C-1.701875 7.204375 -2.34125 7.59625 -3 8 C-3.66 7.67 -4.32 7.34 -5 7 C-5 6.01 -5 5.02 -5 4 C-4.360625 3.71125 -3.72125 3.4225 -3.0625 3.125 C-0.84793921 2.17176549 -0.84793921 2.17176549 0 0 Z " fill="#F45E1A" transform="translate(471,577)"/>
<path d="M0 0 C1 2 1 2 0.375 4.4375 C-1.27706844 7.51635481 -2.91798591 8.45899296 -6 10 C-4.79157144 5.56909529 -3.48331435 3.01887244 0 0 Z " fill="#F35215" transform="translate(598,607)"/>
<path d="M0 0 C3.4375 0.8125 3.4375 0.8125 7 2 C7.33 2.99 7.66 3.98 8 5 C9.49985609 6.66710346 9.49985609 6.66710346 11 8 C6.40378078 6.5129879 3.53027653 4.20187872 0 1 C0 0.67 0 0.34 0 0 Z " fill="#076ACA" transform="translate(679,418)"/>
<path d="M0 0 C3.36591866 1.44253657 5.51047079 3.33264727 8 6 C5.525 5.01 5.525 5.01 3 4 C2.67 4.66 2.34 5.32 2 6 C0 3 0 3 0 0 Z " fill="#026CCA" transform="translate(624,330)"/>
<path d="M0 0 C1.32 0 2.64 0 4 0 C3.01 3.3 2.02 6.6 1 10 C0 6 0 6 1 3 C0.34 2.67 -0.32 2.34 -1 2 C-0.67 1.34 -0.34 0.68 0 0 Z " fill="#F34E16" transform="translate(417,418)"/>
<path d="M0 0 C0.66 0.33 1.32 0.66 2 1 C0.35 2.65 -1.3 4.3 -3 6 C-3.99 5.67 -4.98 5.34 -6 5 C-4.02 3.35 -2.04 1.7 0 0 Z " fill="#0167C9" transform="translate(434,302)"/>
</svg>
